PathFileType	4	(X/Y/Z)	64_2_99_p1_0-134_filt_butterworth.trc
DataRate	CameraRate	NumFrames	NumMarkers	Units	OrigDataRate	OrigDataStartFrame	OrigNumFrames
47.0	47.0	5	27	m	47.0	83	134
Frame#	Time	RHip			RKnee			RAnkle			RBigToe			RSmallToe			RHeel			LHip			LKnee			LAnkle			LBigToe			LSmallToe			LHeel			Neck			Head			Nose			RShoulder			RElbow			RWrist			RThumb			RIndex			RPinky			LShoulder			LElbow			LWrist			LThumb			LIndex			LPinky			
		X1	Y1	Z1	X2	Y2	Z2	X3	Y3	Z3	X4	Y4	Z4	X5	Y5	Z5	X6	Y6	Z6	X7	Y7	Z7	X8	Y8	Z8	X9	Y9	Z9	X10	Y10	Z10	X11	Y11	Z11	X12	Y12	Z12	X13	Y13	Z13	X14	Y14	Z14	X15	Y15	Z15	X16	Y16	Z16	X17	Y17	Z17	X18	Y18	Z18	X19	Y19	Z19	X20	Y20	Z20	X21	Y21	Z21	X22	Y22	Z22	X23	Y23	Z23	X24	Y24	Z24	X25	Y25	Z25	X26	Y26	Z26	X27	Y27	Z27	
83	1.7659574468085106	0.30027827188326944	0.6751880111930201	0.528831589435713	0.28802024126255477	0.9859230737046047	0.920823947596928	0.2308683686690395	1.2587675034432393	1.2841154229874698	0.28512804273453524	1.0609589405233923	1.4184263738818557	0.3417076432520191	1.1043036638198545	1.3888797695951138	0.1900893807422249	1.344143033344003	1.328225359090168	0.09559956609260739	0.6397838399999722	0.5295872345629349	0.07692387184257753	0.9109701838612255	0.944987997893548	0.055577338327469236	1.1723761261035226	1.2965299250009508	0.1269725309858649	1.0044451692602032	1.4226488698275035	0.045061626061333425	1.0698497685061459	1.4094222602220046	0.05187901900540851	1.3028657658202727	1.3031184600675443	0.25044383979781903	0.3893502316956961	0.05227307400389377	0.29314531028811386	0.172097772999981	-0.0937680019539859	0.28490887257539727	0.19945654513243252	0.059221621351328704	0.3953464645832613	0.40042449213521647	0.06786618525885743	0.3878511057576168	0.44646447735592615	0.2869248363294785	0.2366338130397739	0.33488717538253726	0.24395441926468175	0.08429068260554663	0.3222435296057647	0.14692593940429793	0.113881534912979	0.306683954710412	0.14470188724341082	0.12587120803461127	0.32261835636483754	0.194799844142637	0.10612925508414424	0.3509780447318561	0.06481113980081138	0.13391073798938624	0.3946668510139794	0.3127711174532841	0.3028689867296816	0.45921246485400535	0.2991682876278462	0.3864589886410879	0.4433230187951535	0.23170105953734815	0.4166074811221847	0.4737212004327727	0.24219832327913451	0.41935855070868644	0.5021719318894008	0.2943724046459351
84	1.7872340425531914	0.3000659916849563	0.6800668156842159	0.5284744571269266	0.28801655341417975	0.9897871609737324	0.9202706448602709	0.23072734118782318	1.2588898434837408	1.284114647162085	0.28536513702255023	1.0603333304224984	1.418324742338279	0.34214053077151335	1.1029487992587306	1.388891516338709	0.18561316259645366	1.3542794645792684	1.328381123811982	0.09549929513490282	0.6404958928254018	0.5292929168927762	0.07666388986166227	0.9114751116843959	0.9461707457217	0.055611639514284786	1.1681213292941868	1.2969321925394621	0.12699381968674545	1.0045719891880327	1.4226537386941098	0.04832174281085439	1.0701688016713287	1.4092827365989087	0.05184711634571162	1.303761008325619	1.3031917874717354	0.2527800744160629	0.3861895260864731	0.05318423510801285	0.29450347153584466	0.1727827992226187	-0.09417076819505803	0.28778083818493105	0.19798382205772092	0.06120597797622736	0.3985573876551626	0.39701380799884906	0.07117336945077375	0.3865919264427856	0.45007902683476797	0.28421007734107856	0.2774709843014045	0.2879562055302956	0.2738097907400855	0.0780482868824775	0.32817929786657785	0.1499414471153482	0.12975824607776787	0.29352963324214576	0.16348744891748263	0.14281941266750067	0.30358169284728964	0.2093631637178945	0.10659004115189033	0.3465483981886971	0.0690492904780746	0.1304854830925041	0.3970861796633924	0.30403857293812886	0.3037776494107464	0.4565745301212214	0.3030554711895759	0.38530810665572146	0.4432627973660188	0.22662548437212962	0.42557902804068753	0.45388058397077136	0.245950836875087	0.43844839852562506	0.4721149988811132	0.3072364930988905
85	1.8085106382978724	0.29998702467181004	0.6812687680765076	0.5275172307804611	0.28800397393370036	0.9906975980762889	0.9201859785729072	0.2306462252497176	1.2590353639221974	1.2841277469643306	0.28555596399037725	1.060290829282696	1.4182354716753682	0.3423244244514308	1.1024017183134194	1.3888735623589266	0.1823162701464032	1.364181761778311	1.3274085062039274	0.09543285289048985	0.6412922087528382	0.5293961251117665	0.07661899252338403	0.9115778787704343	0.9464332132935351	0.055626372476884255	1.1679006975127393	1.29697873709134	0.12698904151208334	1.0046570527243892	1.4227136056637497	0.05123625407468376	1.0711674022649802	1.4091448509796376	0.05185501901433617	1.3038336916992834	1.3031434805198383	0.2531828174947192	0.38530326744300597	0.05357311890588094	0.2954152946731378	0.17336989964	-0.0944710700665227	0.28782420478149406	0.19796091005445884	0.06273688260176236	0.39980431882134765	0.39367557160546585	0.07371470504891582	0.3815063616305413	0.45028933111973696	0.28188319358038216	0.3145304108218776	0.23891202304473902	0.3079562678812215	0.07427192770285297	0.33383029241514384	0.15439808980410985	0.14212651340046567	0.28553258162319906	0.1824722039543833	0.1691938038367482	0.26374720943249974	0.21941251460674735	0.10695438628776092	0.34076524878725767	0.07449337637795683	0.12749541219333907	0.39857424963993987	0.29994255734184105	0.30598923623882895	0.45121141774722917	0.2986595876165748	0.38400099233974455	0.44328024844404423	0.2207915990322673	0.4301766050250042	0.4419731334567576	0.24367168255050878	0.45491103138476285	0.44855147406943136	0.31609641617046247
86	1.8297872340425527	0.3000570328227435	0.680025051596474	0.5270643366301061	0.28798818199142884	0.9906916747653719	0.9202061254856149	0.23064183516868098	1.2590888400915734	1.284081485538787	0.28572086570072863	1.0605261939309005	1.418188036910804	0.342339150228828	1.102601163330079	1.3887661531751325	0.18150781927468967	1.3676684297240005	1.3267434379818384	0.09554529687533991	0.6418892658484356	0.5307584316528754	0.07666465053115504	0.9115594650796202	0.9463288423077647	0.05564881762592664	1.168714180039723	1.2969398531148528	0.12695811280478242	1.0046958565831543	1.422794236602446	0.05095332674941501	1.0725377036228514	1.4090518425473477	0.05193258295384648	1.3020828958961148	1.303437159603393	0.2526883576749713	0.3856582040605849	0.053487602425906514	0.2955558940592514	0.17344395495479858	-0.09447883780050716	0.28683608959184503	0.19794273714412947	0.06378137692597537	0.3995233108094097	0.3919193278368951	0.07486910803652694	0.37534747688922776	0.4476930104774607	0.28089347352720473	0.3325373552583677	0.21077651629742025	0.3316378886976289	0.07276497640291438	0.3392080798595143	0.15706959157823022	0.14849038293471867	0.2821659221854327	0.19291678065627282	0.2183950166402192	0.2011478588746038	0.22185271712660318	0.10818602712336339	0.33278733619611855	0.08147466117955696	0.12406142476467548	0.40043251059613005	0.29758133493214367	0.30728213976598673	0.44732112197924595	0.27544923596919757	0.38217125121857365	0.4460800834192783	0.2124308908623171	0.42965799549630135	0.4475870909033806	0.2384547748504955	0.46381824688757173	0.43922948956789637	0.3176646053495173
87	1.851063829787234	0.3001723210987217	0.6768493604122319	0.5282518209659438	0.2879848210592611	0.9896479371242173	0.9204034417443572	0.2306821245993244	1.2593425254018058	1.2839971736459923	0.285861186387547	1.0606318072307062	1.4181730600024856	0.34231104101337284	1.1028343021637457	1.3886440258674577	0.1827564343948313	1.3644049355778232	1.3268996690430082	0.09574919274061593	0.6421844770292614	0.5335261908106286	0.07670480292382306	0.9115633913902019	0.9463207850294163	0.05574749323390238	1.1689286466208721	1.2968297792921757	0.12691884882612753	1.0047317348049711	1.42286410455267	0.04867842132184391	1.0731907228306616	1.4090720403104946	0.05221447084262122	1.3000716622828725	1.3044146998062207	0.25220094083091427	0.3862108334779389	0.05299667366635712	0.2953659289575592	0.17328358304932878	-0.09442361232566483	0.2863992003493495	0.198116545627743	0.06438944466553172	0.39865057753996314	0.39246875976099616	0.07532990424842174	0.373522182285818	0.4430232255763079	0.28002232878867656	0.32678593278138146	0.21574433341844745	0.3349758917201329	0.07355847091417025	0.33907204583424594	0.16049678790853808	0.14929145317091913	0.28223533640678	0.19329556589100305	0.2636680713328311	0.1782486085520799	0.2188278697882714	0.11145366538909404	0.3232766029950914	0.08910283442368798	0.12539495061159006	0.39760797367979095	0.29556313549359636	0.30651278745312993	0.4471167130256879	0.24681495663364772	0.38253573729254176	0.44435830260302417	0.20229701123771987	0.4262752101049024	0.4578808026977689	0.23321023703366556	0.46443649117139707	0.44144847167735424	0.3128313155892609
